<svg xmlns="http://www.w3.org/2000/svg" version="1.1" viewBox="-5.0 -10.0 110.0 135.0">
 <g>
  <path d="m84.191 74.219 10.156-2.3867-13.566-57.715-18.16 4.2695v-6.1484l-20.102 0.003907v5.4531l-11.922-0.003906v-7.8945h-24.531v64.422h-3.8789v15.984h95.621v-15.984zm5.2383-5.4336-11.605 2.7266-1.5586-6.625 11.637-2.6094zm-2.4609-10.488-11.637 2.6094-6.8438-29.125 11.633-2.6094zm-9.2344-39.262 1.4492 6.1602-11.633 2.6055-1.4219-6.0391zm-15.113 5.6602 11.641 49.523h-11.641zm-16.012-8.3672h11.922v5.7656h-11.922zm0 9.8555h11.922v5.5312l-11.922 0.003906zm0 9.6211h11.922v18.141l-11.922 0.003907zm0 22.234h11.922v5.5312h-11.922zm0 9.6211h11.922v6.5586h-11.922zm-16.012-45.879h11.922v52.438h-11.922zm-20.441-7.8945h16.352v7.7227h-16.352zm0 11.812h16.352v36.453h-16.352zm0 40.543h16.352v7.9766h-16.352zm83.566 19.871h-87.445v-7.8086h87.445z"/>
  <path d="m16.289 30.238h4.0859v28.473h-4.0859z"/>
  <path d="m31.914 33.762h4.0898v28.473h-4.0898z"/>
  <path d="m37.113 33.762h4.0859v28.473h-4.0859z"/>
  <path d="m36.559 31.426c1.9844 0 3.5977-1.6133 3.5977-3.5977s-1.6133-3.5977-3.5977-3.5977-3.5977 1.6133-3.5977 3.5977 1.6133 3.5977 3.5977 3.5977zm0-4.0898c0.26953 0 0.48828 0.21875 0.48828 0.49219 0 0.26953-0.21875 0.48828-0.48828 0.48828-0.26953 0-0.49219-0.21875-0.49219-0.48828 0.003906-0.27344 0.22266-0.49219 0.49219-0.49219z"/>
  <path d="m36.559 64.57c-1.9844 0-3.5977 1.6172-3.5977 3.6016s1.6133 3.5977 3.5977 3.5977 3.5977-1.6133 3.5977-3.5977-1.6133-3.6016-3.5977-3.6016zm0 4.0898c-0.26953 0-0.49219-0.21875-0.49219-0.48828s0.21875-0.49219 0.49219-0.49219c0.26953 0 0.48828 0.21875 0.48828 0.49219 0 0.26953-0.21875 0.48828-0.48828 0.48828z"/>
 </g>
<text x="0.0" y="117.5" font-size="5.0" font-weight="bold" font-family="Arbeit Regular, Helvetica, Arial-Unicode, Arial, Sans-serif" fill="#000000">by bellvania naomi argi pramana</text><text x="0.0" y="122.5" font-size="5.0" font-weight="bold" font-family="Arbeit Regular, Helvetica, Arial-Unicode, Arial, Sans-serif" fill="#000000">from Noun Project</text></svg>